# xmcd CD database file
#
# Track frame offsets:
#	150
#	14975
#	36380
#	51820
#	58762
#	77877
#	93187
#	113550
#	133055
#	143995
#	160822
#	178915
#
# Disc length: 2600 seconds
#
# Revision: 2
# Processed by: cddbd v1.5PL3 Copyright (c) Steve Scherf et al.
# Submitted via: CDex 1.50beta9
#
DISCID=ab0a260c
DTITLE=GONTITI - PHYSICS
DYEAR=1900
DGENRE=Instrumental
TTITLE0=U.T. (Greenwich Time)
TTITLE1=ガロア
TTITLE2=General Trend
TTITLE3=Clockwork Waltz
TTITLE4=チョコレート粉砕工場
TTITLE5=夢の比重
TTITLE6=マダムQと食卓
TTITLE7=雨あがりの王国
TTITLE8=ドイツ銀行
TTITLE9=Modern et la
TTITLE10=このうえない困りもの
TTITLE11=Birth of Sigh
EXTD=
EXTT0=
EXTT1=
EXTT2=
EXTT3=
EXTT4=
EXTT5=
EXTT6=
EXTT7=
EXTT8=
EXTT9=
EXTT10=
EXTT11=
PLAYORDER=
